<svg height="1000" width="938" xmlns="http://www.w3.org/2000/svg"><path d="M468.75 291.25q-97.5 0 -171.25 52.5 -77.5 55 -165 156.25 85 98.75 165 155 73.75 52.5 171.25 52.5t171.25 -52.5q80 -56.25 165 -155 -87.5 -101.25 -165 -156.25 -73.75 -52.5 -171.25 -52.5zm0 -103.75q132.5 0 231.25 71.25 60 42.5 119.375 103.125t88.125 99.375l30 38.75q-11.25 16.25 -31.875 43.125t-83.125 91.25 -122.5 106.875q-98.75 71.25 -231.25 71.25 -133.75 0 -232.5 -71.25 -60 -42.5 -119.375 -103.125t-88.125 -99.375l-28.75 -38.75q11.25 -16.25 31.875 -43.125t82.5 -91.25 121.875 -106.875q98.75 -71.25 232.5 -71.25zm0 260q21.25 0 36.875 15.625t15.625 36.875 -15.625 36.25 -36.875 15 -36.875 -15 -15.625 -36.25 15.625 -36.875 36.875 -15.625zm0 208.75q-65 0 -110.625 -45.625t-45.625 -110.625 45.625 -110.625 110.625 -45.625 110.625 45.625 45.625 110.625 -45.625 110.625 -110.625 45.625zm0 -261.25q-42.5 0 -73.125 30.625t-30.625 74.375q0 42.5 30 73.125t73.75 30.625 73.75 -30.625 30 -73.125q0 -43.75 -30.625 -74.375t-73.125 -30.625z"/></svg>