<?xml version="1.0" encoding="UTF-8" standalone="no"?>
<svg width="938px" height="626px" viewBox="0 0 938 626" version="1.1" xmlns="http://www.w3.org/2000/svg" xmlns:xlink="http://www.w3.org/1999/xlink" xmlns:sketch="http://www.bohemiancoding.com/sketch/ns">
    <!-- Generator: Sketch 3.4 (15575) - http://www.bohemiancoding.com/sketch -->
    <title>Untitled</title>
    <desc>Created with Sketch.</desc>
    <defs></defs>
    <g id="Page-1" stroke="none" stroke-width="1" fill="none" fill-rule="evenodd" sketch:type="MSPage">
        <path d="M468.75,104.25 C403.75,104.25 346.666667,121.75 297.5,156.75 C245.833333,193.416667 190.833333,245.5 132.5,313 C189.166667,378.833333 244.166667,430.5 297.5,468 C346.666667,503 403.75,520.5 468.75,520.5 C533.75,520.5 590.833333,503 640,468 C693.333333,430.5 748.333333,378.833333 805,313 C746.666667,245.5 691.666667,193.416667 640,156.75 C590.833333,121.75 533.75,104.25 468.75,104.25 L468.75,104.25 Z M468.75,0.5 C557.083333,0.5 634.166667,24.25 700,71.75 C740,100.083333 779.791667,134.458333 819.375,174.875 C858.958333,215.291667 888.333333,248.416667 907.5,274.25 L937.5,313 C930,323.833333 919.375,338.208333 905.625,356.125 C891.875,374.041667 864.166667,404.458333 822.5,447.375 C780.833333,490.291667 740,525.916667 700,554.25 C634.166667,601.75 557.083333,625.5 468.75,625.5 C379.583333,625.5 302.083333,601.75 236.25,554.25 C196.25,525.916667 156.458333,491.541667 116.875,451.125 C77.2916667,410.708333 47.9166667,377.583333 28.75,351.75 L0,313 C7.5,302.166667 18.125,287.791667 31.875,269.875 C45.625,251.958333 73.125,221.541667 114.375,178.625 C155.625,135.708333 196.25,100.083333 236.25,71.75 C302.083333,24.25 379.583333,0.5 468.75,0.5 L468.75,0.5 Z M468.75,469.25 C425.416667,469.25 388.541667,454.041667 358.125,423.625 C327.708333,393.208333 312.5,356.333333 312.5,313 C312.5,269.666667 327.708333,232.791667 358.125,202.375 C388.541667,171.958333 425.416667,156.75 468.75,156.75 C512.083333,156.75 548.958333,171.958333 579.375,202.375 C609.791667,232.791667 625,269.666667 625,313 C625,356.333333 609.791667,393.208333 579.375,423.625 C548.958333,454.041667 512.083333,469.25 468.75,469.25 L468.75,469.25 Z M395.625,238.625 C375.208333,259.041667 365,283.833333 365,313 C365,341.333333 375,365.708333 395,386.125 C415,406.541667 439.583333,416.75 468.75,416.75 C497.916667,416.75 522.5,406.541667 542.5,386.125 C562.5,365.708333 572.5,341.333333 572.5,313 C572.5,283.833333 562.291667,259.041667 541.875,238.625 C521.458333,218.208333 497.083333,208 468.75,208 C440.416667,208 416.041667,218.208333 395.625,238.625 Z" id="Shape" fill="#000000" sketch:type="MSShapeGroup"></path>
    </g>
</svg>