<?xml version="1.0" encoding="utf-8"?>
<!-- Generator: Adobe Illustrator 19.1.0, SVG Export Plug-In . SVG Version: 6.00 Build 0)  -->
<svg version="1.1" id="Layer_1" xmlns:sketch="http://www.bohemiancoding.com/sketch/ns"
	 xmlns="http://www.w3.org/2000/svg" xmlns:xlink="http://www.w3.org/1999/xlink" x="0px" y="0px" viewBox="-30 188 938 626"
	 style="enable-background:new -30 188 938 626;" xml:space="preserve">
<style type="text/css">
	.st0{fill:#2A38FF;}
</style>
<title>Untitled</title>
<desc>Created with Sketch.</desc>
<g id="Page-1" sketch:type="MSPage">
	<g id="XMLID_1_">
		<g>
			<path fill="#2A38FF" d="M775,501c-56.7,65.8-111.7,117.5-165,155c-49.2,35-106.2,52.5-171.2,52.5S316.7,691,267.5,656
				c-53.3-37.5-108.3-89.2-165-155c58.3-67.5,113.3-119.6,165-156.2c49.2-35,106.2-52.5,171.2-52.5s122.1,17.5,171.2,52.5
				C661.7,381.4,716.7,433.5,775,501z M595,501c0-43.3-15.2-80.2-45.6-110.6c-30.4-30.4-67.3-45.6-110.6-45.6s-80.2,15.2-110.6,45.6
				c-30.4,30.4-45.6,67.3-45.6,110.6s15.2,80.2,45.6,110.6c30.4,30.4,67.3,45.6,110.6,45.6S519,642,549.4,611.6
				C579.8,581.2,595,544.3,595,501z"/>
			<path d="M877.5,462.2l30,38.8c-7.5,10.8-18.1,25.2-31.9,43.1c-13.7,17.9-41.5,48.3-83.1,91.3C750.8,678.3,710,713.9,670,742.2
				c-65.8,47.5-142.9,71.2-231.2,71.2c-89.2,0-166.7-23.8-232.5-71.2c-40-28.3-79.8-62.7-119.4-103.1c-39.6-40.4-69-73.5-88.1-99.4
				L-30,501c7.5-10.8,18.1-25.2,31.9-43.1c13.7-17.9,41.2-48.3,82.5-91.3c41.2-42.9,81.9-78.5,121.9-106.9
				c65.8-47.5,143.3-71.2,232.5-71.2c88.3,0,165.4,23.8,231.2,71.2c40,28.3,79.8,62.7,119.4,103.1
				C829,403.3,858.3,436.4,877.5,462.2z M610,656c53.3-37.5,108.3-89.2,165-155c-58.3-67.5-113.3-119.6-165-156.2
				c-49.2-35-106.2-52.5-171.2-52.5s-122.1,17.5-171.2,52.5c-51.7,36.7-106.7,88.8-165,156.2c56.7,65.8,111.7,117.5,165,155
				c49.2,35,106.2,52.5,171.2,52.5S560.8,691,610,656z"/>
			<path d="M549.4,390.4C579.8,420.8,595,457.7,595,501s-15.2,80.2-45.6,110.6c-30.4,30.4-67.3,45.6-110.6,45.6
				s-80.2-15.2-110.6-45.6c-30.4-30.4-45.6-67.3-45.6-110.6s15.2-80.2,45.6-110.6c30.4-30.4,67.3-45.6,110.6-45.6
				S519,360,549.4,390.4z M512.5,574.1c20-20.4,30-44.8,30-73.1c0-29.2-10.2-54-30.6-74.4c-20.4-20.4-44.8-30.6-73.1-30.6
				s-52.7,10.2-73.1,30.6C345.2,447,335,471.8,335,501c0,28.3,10,52.7,30,73.1c20,20.4,44.6,30.6,73.8,30.6S492.5,594.5,512.5,574.1
				z"/>
		</g>
		<g>
		</g>
	</g>
</g>
</svg>
