#  ==========================================================================
#  
#  Wavefront OBJ format exported by Red-i Productions' "Riptide Pro"
#     (a commercial plugin for Cinema 4D PC & Mac, R9.6 or later)
#  
#  Red-i Productions
#  http://skinprops.com
#  
#  ==========================================================================
v -0.149761 -0.269569 -0.774368
v 0.187137 -0.269569 -0.774368
v 0.291251 0.0508513 -0.774368
v 0.0186766 0.248862 -0.774368
v -0.253783 0.0508513 -0.774368
v -0.510729 0.134598 -0.606533
v -0.309016 -0.488867 -0.606828
v 0.346461 -0.488867 -0.606828
v 0.549052 0.134444 -0.607031
v 0.0186766 0.51994 -0.606828
v 0.618763 -0.40031 -0.430237
v 0.717512 -0.0970876 -0.42965
v 0.549052 0.421189 -0.429853
v 0.291251 0.608497 -0.429853
v -0.253783 0.608497 -0.429853
v -0.511346 0.421189 -0.429558
v -0.679998 -0.0972422 -0.429853
v -0.581499 -0.40031 -0.429853
v -0.140648 -0.720731 -0.429853
v 0.177774 -0.720731 -0.429468
v -0.309016 -0.775457 -0.143331
v -0.581499 -0.577424 -0.143331
v 0.346712 -0.775457 -0.143241
v 0.619286 -0.577424 -0.143716
v 0.821603 0.0460414 -0.143241
v 0.717512 0.366462 -0.143422
v 0.187137 0.751781 -0.143331
v -0.149761 0.751781 -0.143331
v -0.680806 0.366462 -0.143627
v -0.78402 0.0460414 -0.143331
v -0.149761 -0.827238 0.127771
v 0.187137 -0.827238 0.127771
v 0.717512 -0.441896 0.127771
v 0.821603 -0.121476 0.127771
v 0.619013 0.50199 0.127771
v 0.346461 0.700023 0.127771
v -0.581499 0.50199 0.127771
v -0.309016 0.700023 0.127771
v -0.679998 -0.441896 0.127771
v -0.783615 -0.121476 0.127533
v 0.291251 -0.683932 0.414685
v 0.549052 -0.496623 0.414358
v -0.511537 -0.496623 0.414522
v -0.253783 -0.683932 0.414522
v -0.680093 0.0218079 0.414465
v -0.581499 0.324876 0.414522
v -0.140648 0.645296 0.414522
v 0.178024 0.645296 0.414522
v 0.717512 0.0218079 0.414522
v 0.619013 0.324876 0.414522
v 0.0186996 -0.595375 0.591498
v -0.511942 -0.210056 0.591735
v -0.309016 0.413433 0.591497
v 0.346461 0.413433 0.591497
v 0.549052 -0.210033 0.591497
v -0.149761 0.194135 0.758834
v 0.187137 0.194135 0.759422
v 0.291251 -0.126286 0.759038
v 0.0186996 -0.324296 0.759038
v -0.253783 -0.126286 0.758653
# 60 vertices

vt 0.75011 0.38103
vt 0.78458 0.58647
vt 0.80457 0.46022
vt 0.80781 0.81165
vt 0.90280 0.64141
vt 0.82996 0.68165
vt 0.86561 0.42730
vt 0.96991 0.33114
vt 0.89340 0.30612
vt 0.08667 0.47171
vt 0.10722 0.68473
vt 0.13484 0.56218
vt 0.19262 0.18339
vt 0.09787 0.34951
vt 0.17040 0.31020
vt 0.19565 0.52922
vt 0.28425 0.40374
vt 0.21554 0.40377
vt 0.36492 0.56237
vt 0.47303 0.52741
vt 0.41317 0.47162
vt 0.32937 0.31008
vt 0.43677 0.14045
vt 0.30706 0.18341
vt 0.52628 0.46209
vt 0.60681 0.30593
vt 0.53014 0.33091
vt 0.65865 0.20669
vt 0.89339 0.08348
vt 0.60710 0.08317
vt 0.69254 0.81178
vt 0.53495 0.72544
vt 0.56180 0.85547
vt 0.39093 0.91325
vt 0.15889 0.78584
vt 0.10858 0.91293
vt 1.06295 0.14088
vt 1.19262 0.18339
vt 1.30706 0.18341
vt 1.43677 0.14045
vt 0.97373 0.46217
vt 1.02691 0.52737
vt 1.08667 0.47171
vt 1.09787 0.34951
vt 1.03583 0.26726
vt 0.30414 0.52924
vt 0.40208 0.34933
vt 0.24989 0.60870
vt 0.24986 0.73427
vt 0.34080 0.78603
vt 0.39263 0.68501
vt 0.46907 0.65967
vt 1.03087 0.65961
vt 0.96512 0.72514
vt 0.93839 0.85509
vt 1.10858 0.91293
vt 0.03087 0.65961
vt 1.39093 0.91325
vt 0.71561 0.58656
vt 0.67027 0.68176
vt 0.91383 0.51793
vt 0.59735 0.64157
vt 0.58627 0.51796
vt 0.46418 0.26686
vt 0.69562 0.46018
vt 0.63454 0.42726
vt 0.75014 0.25719
vt 0.84163 0.20693
vt 0.02691 0.52737
vt 0.06295 0.14088
vt 0.03583 0.26726
# 71 texture coordinates

vn 0.000705572 -0.000971187 0.999999
vn 0.525662 0.723459 0.447534
vn 0.850632 -0.276428 0.447228
vn 0.850673 0.276329 -0.447211
vn 0.525326 -0.72407 -0.44694
vn 0 0 -1
vn -0.849483 0.278898 -0.447878
vn -0.52602 -0.723362 -0.44727
vn -0.851001 -0.274865 0.447489
vn 0 -0.894513 0.447042
vn -0.525929 0.723649 0.446913
vn 0 0.894398 -0.447271
vn 5.73218e-05 -0.982219 -0.187737
vn 9.12252e-07 -0.982243 -0.187611
vn -0.000260335 -0.60733 -0.79445
vn 0.000286888 -0.606902 -0.794777
vn 0.934074 -0.303758 -0.187716
vn 0.9345 -0.302325 -0.187907
vn 0.577235 -0.18827 -0.794578
vn 0.577035 -0.187381 -0.794933
vn -0.578172 -0.186528 -0.794307
vn -0.577252 -0.187698 -0.794701
vn -0.357069 0.490809 -0.794737
vn -0.358164 0.49055 -0.794405
vn -0.577525 0.794523 -0.187614
vn -0.576028 0.795554 -0.187845
vn 0.577353 0.794677 -0.18749
vn 0.57733 0.794657 -0.187643
vn 0.356635 0.491012 -0.794808
vn 0.356688 0.491037 -0.794768
vn 2.75507e-05 0.982265 0.187498
vn -2.75624e-05 0.982265 0.187498
vn -2.01202e-05 0.607333 0.794447
vn 5.9953e-05 0.606678 0.794947
vn 0.934168 0.303573 0.187549
vn 0.93418 0.303531 0.187557
vn 0.934156 0.303615 0.18754
vn 0.577178 0.187474 0.794808
vn 0.577988 0.187422 0.794231
vn -0.934488 0.303047 0.186801
vn -0.934196 0.302295 0.189462
vn -0.934194 -0.303837 -0.186988
vn -0.934417 -0.302635 -0.187823
vn -0.577477 -0.794597 0.187447
vn -0.57744 -0.794587 0.187601
vn -0.577125 0.187546 0.794829
vn -0.576303 0.187564 0.795421
vn -0.356163 -0.491279 0.794854
vn -0.357377 -0.490752 0.794635
vn 0.356836 -0.491143 0.794636
vn 0.357089 -0.490777 0.794749
vn 0.577171 -0.794748 0.187749
vn 0.577502 -0.794516 0.187714
vn -0.0016621 -0.000114529 0.999999
vn 0.525821 0.723682 0.446986
vn 0.850672 -0.276491 0.447113
vn 0.850626 0.276196 -0.447383
vn 0.524935 -0.723568 -0.448211
vn -0.849826 0.274311 -0.450055
vn -0.525771 -0.72352 -0.447307
vn -0.851423 -0.276773 0.445506
vn -0.000231866 -0.894461 0.447146
vn -0.525823 0.723579 0.44715
vn 0 0.894343 -0.447382
# 64 vertex normals

f 58/3/1 57/2/1 59/1/1
f 54/6/2 50/5/2 48/4/2
f 42/9/3 33/8/3 55/7/3
f 9/12/4 13/11/4 12/10/4
f 8/15/5 11/14/5 20/13/5
f 2/18/6 1/17/6 3/16/6
f 17/21/7 30/20/7 6/19/7
f 19/24/8 21/23/8 7/22/8
f 39/27/9 43/26/9 40/25/9
f 31/30/10 32/29/10 44/28/10
f 38/33/11 37/32/11 47/31/11
f 27/36/12 14/35/12 28/34/12
f 19/39/13 20/38/13 23/37/13 32/29/13
f 32/29/14 31/30/14 21/40/14 19/39/14
f 1/17/15 2/18/15 8/15/15 20/13/15
f 20/13/16 19/24/16 7/22/16 1/17/16
f 11/44/17 12/43/17 25/42/17 34/41/17
f 34/41/18 33/8/18 24/45/18 11/44/18
f 2/18/19 3/16/19 9/12/19 12/10/19
f 12/10/20 11/14/20 8/15/20 2/18/20
f 17/21/21 6/19/21 5/46/21 1/17/21
f 1/17/22 7/22/22 18/47/22 17/21/22
f 16/51/23 15/50/23 10/49/23 4/48/23
f 4/48/24 5/46/24 6/19/24 16/51/24
f 37/32/25 38/33/25 28/34/25 15/50/25
f 15/50/26 16/51/26 29/52/26 37/32/26
f 27/56/27 36/55/27 35/54/27 26/53/27
f 26/57/28 13/11/28 14/35/28 27/36/28
f 4/48/29 10/49/29 14/35/29 13/11/29
f 13/11/30 9/12/30 3/16/30 4/48/30
f 47/31/31 48/4/31 36/55/31 27/56/31
f 27/56/32 28/58/32 38/33/32 47/31/32
f 56/59/33 57/2/33 54/6/33 48/4/33
f 48/4/34 47/31/34 53/60/34 56/59/34
f 49/61/35 34/41/36 25/42/36 26/53/35
f 26/53/35 35/54/37 50/5/37 49/61/35
f 58/3/38 55/7/38 49/61/38 50/5/38
f 50/5/39 54/6/39 57/2/39 58/3/39
f 30/20/40 40/25/40 45/63/40 46/62/40
f 46/62/41 37/32/41 29/52/41 30/20/41
f 40/25/42 30/20/42 17/21/42 18/47/42
f 18/47/43 22/64/43 39/27/43 40/25/43
f 39/27/44 22/64/44 21/23/44 31/30/44
f 31/30/45 44/28/45 43/26/45 39/27/45
f 56/59/46 53/60/46 46/62/46 45/63/46
f 45/63/47 52/66/47 60/65/47 56/59/47
f 60/65/48 52/66/48 43/26/48 44/28/48
f 44/28/49 51/67/49 59/1/49 60/65/49
f 55/7/50 58/3/50 59/1/50 51/67/50
f 51/67/51 41/68/51 42/9/51 55/7/51
f 42/9/52 41/68/52 32/29/52 23/37/52
f 23/37/53 24/45/53 33/8/53 42/9/53
f 56/59/54 60/65/54 59/1/54 57/2/54
f 35/54/55 36/55/55 48/4/55 50/5/55
f 34/41/56 49/61/56 55/7/56 33/8/56
f 26/57/57 25/69/57 12/10/57 13/11/57
f 24/71/58 23/70/58 20/13/58 11/14/58
f 5/46/6 4/48/6 3/16/6 1/17/6
f 29/52/59 16/51/59 6/19/59 30/20/59
f 22/64/60 18/47/60 7/22/60 21/23/60
f 52/66/61 45/63/61 40/25/61 43/26/61
f 41/68/62 51/67/62 44/28/62 32/29/62
f 46/62/63 53/60/63 47/31/63 37/32/63
f 10/49/64 15/50/64 28/34/64 14/35/64
# 64 facets

