<?xml version="1.0" encoding="utf-8"?>
<!-- Generator: Adobe Illustrator 18.1.0, SVG Export Plug-In . SVG Version: 6.00 Build 0)  -->
<svg version="1.1" id="Layer_1" xmlns="http://www.w3.org/2000/svg" xmlns:xlink="http://www.w3.org/1999/xlink" x="0px" y="0px"
	 viewBox="0 0 2000 2000" enable-background="new 0 0 2000 2000" xml:space="preserve">
<g>
	<path fill="#C3C3C3" d="M1339.1,1010c0,52.5-12.2,102.2-33.8,146.4c60-88.5,161.4-146.6,276.3-146.6c31.5,0,62,4.4,90.9,12.5
		c0.1-4.1,0.2-8.2,0.2-12.4c0-251-138.6-469.6-343.5-583.5c-33.8,135.6-150.4,238.3-293.1,251.3
		C1206,693.3,1339.1,836.1,1339.1,1010z"/>
	<path fill="#9B9B9B" d="M1848.4,1343.3c0,147.4-119.5,266.9-266.9,266.9c-147.4,0-266.9-119.5-266.9-266.9
		c0-147.4,119.5-266.9,266.9-266.9C1729,1076.5,1848.4,1196,1848.4,1343.3z"/>
	<path fill="#C3C3C3" d="M696.3,1343.3c0,147.4-119.5,266.9-266.9,266.9c-147.4,0-266.9-119.5-266.9-266.9
		c0-147.4,119.5-266.9,266.9-266.9C576.8,1076.5,696.3,1196,696.3,1343.3z"/>
	<path fill="#4E4E4E" d="M1272.4,345.6c0,147.4-119.5,266.9-266.9,266.9c-147.4,0-266.9-119.5-266.9-266.9
		c0-147.4,119.5-266.9,266.9-266.9C1152.9,78.8,1272.4,198.2,1272.4,345.6z"/>
	<path fill="#9B9B9B" d="M429.4,1009.8c115,0,216.3,58.2,276.3,146.6c-21.6-44.2-33.8-93.9-33.8-146.4
		c0-173.9,133.1-316.7,303-332.2c-142.6-13-259.3-115.7-293.1-251.3C477,540.4,338.3,759,338.3,1010c0,4.1,0.1,8.2,0.2,12.4
		C367.4,1014.1,397.9,1009.8,429.4,1009.8z"/>
	<path fill="#4E4E4E" d="M1248,1343.3c0-52.5,12.2-102.2,33.8-146.4c-60,88.5-161.4,146.6-276.3,146.6
		c-115,0-216.3-58.2-276.3-146.6c21.6,44.2,33.8,93.9,33.8,146.4c0,93.6-38.6,178.2-100.7,238.8c100.3,60.3,217.7,95,343.2,95
		s242.9-34.7,343.2-95C1286.6,1521.6,1248,1437,1248,1343.3z"/>
</g>
</svg>
