# Blender v2.69 (sub 0) OBJ File: ''
# www.blender.org
mtllib cube.mtl
o Cube.002
v 1.000000 -1.000000 -1.000000
v 1.000000 -1.000000 1.000000
v -1.000000 -1.000000 1.000000
v -1.000000 -1.000000 -1.000000
v 1.000000 1.000000 -0.999999
v -1.000000 1.000000 -1.000000
v -1.000000 1.000000 1.000000
v 0.999999 1.000000 1.000001
vt 0.000000 0.000000
vt 0.000000 1.000000
vt -1.000000 1.000000
vt -1.000000 0.000000
vt 0.000000 0.000001
vt 1.000000 0.000001
vt 1.000000 1.000000
vt 1.000000 0.000000
vt 1.000000 -1.000000
vt 0.000000 -1.000000
vt -1.000000 -1.000000
vn 0.000000 -1.000000 -0.000000
vn -0.000000 1.000000 0.000000
vn 1.000000 0.000000 0.000000
vn -0.000000 -0.000000 1.000000
vn -1.000000 -0.000000 0.000000
vn 0.000000 0.000000 -1.000000
usemtl None
s off
f 1/1/1 2/2/1 3/3/1 4/4/1
f 5/5/2 6/4/2 7/3/2 8/2/2
f 1/1/3 5/6/3 8/7/3 2/2/3
f 2/1/4 8/2/4 7/3/4 3/4/4
f 3/1/5 7/8/5 6/9/5 4/10/5
f 5/1/6 1/10/6 4/11/6 6/4/6
